<svg width="80" height="80" viewBox="0 0 80 80" fill="none" xmlns="http://www.w3.org/2000/svg">
<path d="M40 16.6667C27.1333 16.6667 16.6666 27.1334 16.6666 40.0001C16.6666 52.8668 27.1333 63.3334 40 63.3334C52.8666 63.3334 63.3333 52.8668 63.3333 40.0001C63.3333 27.1334 52.8666 16.6667 40 16.6667ZM40 60.0001C28.9716 60.0001 20 51.0284 20 40.0001C20 28.9717 28.9716 20.0001 40 20.0001C51.0283 20.0001 60 28.9717 60 40.0001C60 51.0284 51.0283 60.0001 40 60.0001Z" fill="#F15A24"/>
<path d="M48.8217 32.155L36.6667 44.31L31.1767 38.8217C30.525 38.17 29.4717 38.17 28.82 38.8217C28.1683 39.4733 28.1683 40.5283 28.82 41.1783L35.4883 47.845C35.815 48.17 36.2417 48.3333 36.6667 48.3333C37.0917 48.3333 37.52 48.17 37.845 47.845L51.1783 34.5117C51.83 33.86 51.83 32.8067 51.1783 32.155C50.5267 31.5033 49.4733 31.5033 48.8217 32.155Z" fill="#F15A24"/>
<path d="M73.1166 34.5784C72.43 34.0701 72.2166 33.0651 72.6716 32.3418C74.3 29.7518 76.665 24.3117 68.5216 22.3167C67.6916 22.1134 67.0766 21.2551 67.2533 20.4217C68.035 16.7651 66.94 11.4551 59.58 12.7484C58.7416 12.8951 57.85 12.3184 57.685 11.4801C57.1333 8.67675 54.7566 2.99841 47.6616 7.32841C46.9316 7.77341 45.7683 7.53175 45.425 6.88175C44.3233 4.80008 39.4983 7.96318e-05 34.575 6.88175C34.0783 7.57675 32.9366 7.75508 32.3383 7.32675C29.1083 5.01341 23.89 4.43508 22.3133 11.4767C22.1316 12.2851 21.2716 12.9051 20.4166 12.7434C17.5933 12.2067 11.3966 12.3834 12.7483 20.4167C12.89 21.2584 12.325 22.1867 11.4816 22.3134C8.1933 22.8051 3.1233 25.4468 7.3283 32.3368C7.7733 33.0651 7.64497 34.1884 6.8833 34.5734C3.96497 36.0484 0.623305 41.2951 6.8833 45.4284C7.59497 45.8984 7.7733 46.9101 7.3283 47.6384C3.1233 54.5284 8.1933 57.1684 11.4816 57.6618C12.3266 57.7884 12.89 58.7168 12.7483 59.5584C11.3966 67.5918 17.5933 67.7684 20.42 67.2301C21.275 67.0668 22.135 67.6884 22.3166 68.4967C23.8933 75.5401 29.1116 74.9601 32.3416 72.6468C32.94 72.2184 34.0816 72.3968 34.5783 73.0918C39.5016 79.9751 44.3266 75.1751 45.4283 73.0918C45.7716 72.4434 46.935 72.2001 47.665 72.6451C54.76 76.9751 57.1366 71.2968 57.6883 68.4934C57.8533 67.6551 58.745 67.0784 59.5833 67.2251C66.9433 68.5184 68.0366 63.2084 67.2566 59.5518C67.0783 58.7184 67.695 57.8601 68.525 57.6568C76.67 55.6618 74.305 50.2218 72.675 47.6318C72.22 46.9084 72.4166 45.8818 73.1166 45.3984C75.2933 43.8934 80 39.6717 73.1166 34.5784ZM70.7366 51.1851C71.3033 52.0968 70.9533 53.3501 69.6633 53.7751C67.3 54.5551 62.945 55.1968 64.1066 62.0951C64.3283 63.4067 63.6266 64.1917 62.1233 64.0767C59.8366 63.9017 55.1283 62.9767 53.8066 69.6351C53.545 70.9501 52.2566 71.2351 51.2166 70.7101C46.73 68.4451 44.935 68.1551 41.405 72.6618C40.73 73.5234 39.3233 73.4868 38.6 72.6618C36.7033 70.5001 34.555 67.1767 28.7866 70.7117C27.7833 71.3268 26.64 70.8518 26.1966 69.6384C25.045 66.4784 24.705 63.1101 17.8783 64.0818C16.825 64.2318 15.7083 63.5184 15.8966 62.1001C16.255 59.3867 16.6666 55.0301 10.3366 53.7801C9.35997 53.5868 8.59664 52.2834 9.2633 51.1901C11.7916 47.0551 11.4416 44.4684 7.27497 41.3601C6.80497 41.0101 6.03997 39.5051 7.31164 38.5951C11.37 35.6917 11.7916 32.9201 9.2633 28.7834C8.59497 27.6901 9.35997 26.3851 10.3366 26.1934C16.6666 24.9434 16.255 20.5867 15.8966 17.8734C15.7083 16.4551 16.8266 15.7417 17.8783 15.8917C24.705 16.8617 25.045 13.4951 26.1966 10.3351C26.6383 9.12008 27.7833 8.64675 28.7866 9.26175C34.5566 12.7967 36.705 9.47341 38.6 7.31175C39.3233 6.48675 40.7283 6.45008 41.405 7.31175C44.935 11.8184 46.73 11.5284 51.2166 9.26341C52.2566 8.73841 53.545 9.02341 53.8066 10.3384C55.1283 16.9967 59.8366 16.0717 62.1233 15.8967C63.6283 15.7817 64.3283 16.5667 64.1066 17.8784C62.945 24.7784 67.3 25.4184 69.6633 26.1984C70.9533 26.6234 71.3033 27.8784 70.7366 28.7884C67.03 34.7417 70.9466 37.1084 72.6883 38.6017C73.3683 39.1851 73.76 40.5634 72.845 41.2768C70.7633 42.7168 67.03 45.2318 70.7366 51.1851Z" fill="#F15A24"/>
</svg>
