<svg width="80" height="80" viewBox="0 0 80 80" fill="none" xmlns="http://www.w3.org/2000/svg">
<path d="M58.9706 19.5806L62.1325 14.0806C62.277 13.8292 62.3157 13.5306 62.2401 13.2506C62.1645 12.9706 61.9808 12.7321 61.7294 12.5875L57.2587 10.0194C57.0072 9.87494 56.7086 9.83633 56.4286 9.91205C56.1486 9.98776 55.9101 10.1716 55.7656 10.4231L52.6087 15.9175C49.7623 14.6897 46.751 13.8866 43.6712 13.5338V10.1906H45.89C46.1801 10.1906 46.4583 10.0754 46.6634 9.87029C46.8685 9.66517 46.9837 9.38698 46.9837 9.09689V3.94189C46.9838 3.79824 46.9556 3.65597 46.9007 3.52324C46.8457 3.3905 46.7652 3.26989 46.6636 3.16831C46.562 3.06673 46.4414 2.98617 46.3087 2.93123C46.1759 2.8763 46.0337 2.84806 45.89 2.84814H34.11C33.9663 2.84806 33.8241 2.8763 33.6913 2.93123C33.5586 2.98617 33.438 3.06673 33.3364 3.16831C33.2348 3.26989 33.1543 3.3905 33.0993 3.52324C33.0444 3.65597 33.0162 3.79824 33.0162 3.94189V9.09689C33.0162 9.38698 33.1315 9.66517 33.3366 9.87029C33.5417 10.0754 33.8199 10.1906 34.11 10.1906H36.3287V13.5306C33.249 13.8835 30.2377 14.6866 27.3912 15.9144L24.2344 10.42C24.1629 10.2954 24.0676 10.1861 23.9538 10.0984C23.8401 10.0106 23.7102 9.94617 23.5715 9.90867C23.4328 9.87117 23.2881 9.86138 23.1457 9.87984C23.0032 9.8983 22.8658 9.94466 22.7413 10.0163L18.2706 12.5844C18.0192 12.729 17.8355 12.9675 17.7599 13.2475C17.6843 13.5275 17.723 13.8261 17.8675 14.0775L21.0294 19.5806C15.6261 23.5737 11.6207 29.1699 9.58341 35.5722C7.54617 41.9744 7.58107 48.8563 9.68313 55.2376C11.7852 61.6189 15.8472 67.1742 21.2907 71.1122C26.7341 75.0503 33.2814 77.1703 40 77.1703C46.7186 77.1703 53.2659 75.0503 58.7093 71.1122C64.1528 67.1742 68.2148 61.6189 70.3169 55.2376C72.4189 48.8563 72.4538 41.9744 70.4166 35.5722C68.3793 29.1699 64.3739 23.5737 58.9706 19.5806ZM57.1175 12.4556L59.6906 13.9375L57.1606 18.3413C56.3273 17.8088 55.4704 17.3146 54.59 16.8588L57.1175 12.4556ZM35.2037 5.03564H44.7962V8.00314H35.2037V5.03564ZM38.5162 10.1906H41.4837V13.3513C40.9919 13.3281 40.5 13.3125 40 13.3125C39.5 13.3125 39.0081 13.3275 38.5162 13.3506V10.1906ZM20.3094 13.9375L22.8825 12.4594L25.41 16.8588C24.5287 17.3138 23.6719 17.8079 22.8394 18.3413L20.3094 13.9375ZM40 74.9644C34.1196 74.9644 28.3712 73.2206 23.4818 69.9536C18.5924 66.6866 14.7816 62.0431 12.5313 56.6103C10.281 51.1774 9.6922 45.1993 10.8395 39.4319C11.9867 33.6645 14.8185 28.3667 18.9766 24.2087C23.1348 20.0506 28.4325 17.219 34.2 16.0719C39.9674 14.9247 45.9455 15.5136 51.3783 17.764C56.8111 20.0145 61.4545 23.8254 64.7215 28.7148C67.9884 33.6043 69.732 39.3527 69.7319 45.2331C69.7228 53.1157 66.5874 60.6727 61.0135 66.2465C55.4397 71.8202 47.8825 74.9555 40 74.9644Z" fill="#F15A24"/>
<path d="M61.505 57.5382C63.6681 53.7739 64.8008 49.506 64.7889 45.1645C64.7771 40.8229 63.6211 36.5613 61.4375 32.8088C61.423 32.7714 61.4063 32.7349 61.3875 32.6994C61.3681 32.6703 61.3472 32.6421 61.325 32.6151C59.1731 28.9949 56.1402 25.9779 52.5088 23.8451C52.4789 23.8205 52.4476 23.7977 52.415 23.7769C52.3795 23.7585 52.343 23.7423 52.3056 23.7282C48.5416 21.565 44.2739 20.4322 39.9326 20.4439C35.5913 20.4557 31.3298 21.6116 27.5775 23.7951C27.5395 23.8101 27.5024 23.8272 27.4662 23.8463C27.4375 23.8657 27.4097 23.8866 27.3831 23.9088C23.7624 26.0607 20.7448 29.0935 18.6113 32.7251C18.5594 32.7842 18.5199 32.853 18.495 32.9276C16.3319 36.6918 15.1992 40.9596 15.2111 45.301C15.2229 49.6424 16.3789 53.904 18.5625 57.6563C18.5771 57.6939 18.5938 57.7306 18.6125 57.7663C18.6263 57.7901 18.6469 57.8076 18.6619 57.8288C20.8141 61.4577 23.8509 64.4818 27.4887 66.6188C27.5193 66.6437 27.5512 66.6669 27.5844 66.6882C27.6119 66.7038 27.6419 66.7101 27.67 66.7238C31.4409 68.8957 35.7185 70.033 40.0701 70.0206C44.4217 70.0082 48.6928 68.8466 52.4512 66.6532C52.4781 66.6401 52.5069 66.6344 52.5331 66.6188C52.5594 66.6032 52.5881 66.5782 52.6162 66.5563C56.2452 64.3998 59.2681 61.3583 61.4025 57.7163C61.4194 57.6919 61.4406 57.6738 61.4556 57.6476C61.4745 57.6123 61.491 57.5757 61.505 57.5382ZM52.3519 64.1457L50.9463 61.7501C50.7996 61.4998 50.5594 61.318 50.2787 61.2447C49.998 61.1715 49.6997 61.2128 49.4494 61.3595C49.1991 61.5061 49.0173 61.7463 48.944 62.027C48.8708 62.3077 48.9121 62.606 49.0588 62.8563L50.4663 65.2576C47.5651 66.7825 44.3651 67.6533 41.0913 67.8088V65.0182C41.0913 64.7281 40.976 64.4499 40.7709 64.2448C40.5658 64.0397 40.2876 63.9244 39.9975 63.9244C39.7074 63.9244 39.4292 64.0397 39.2241 64.2448C39.019 64.4499 38.9037 64.7281 38.9037 65.0182V67.8088C35.6736 67.6539 32.5152 66.8023 29.645 65.3126L31.0387 62.9044C31.1795 62.6537 31.2158 62.3576 31.1398 62.0802C31.0638 61.8028 30.8817 61.5666 30.6328 61.4225C30.3839 61.2785 30.0883 61.2383 29.81 61.3106C29.5316 61.3829 29.293 61.5619 29.1456 61.8088L27.7537 64.2144C25.0945 62.4922 22.8239 60.2341 21.0869 57.5844L23.485 56.1795C23.7339 56.0322 23.9144 55.7923 23.9869 55.5122C24.0594 55.2322 24.018 54.9349 23.8718 54.6853C23.7256 54.4357 23.4865 54.2542 23.2068 54.1805C22.9271 54.1068 22.6296 54.1469 22.3794 54.2919L19.9781 55.6995C18.453 52.7983 17.5819 49.5983 17.4263 46.3245H20.2169C20.507 46.3245 20.7852 46.2092 20.9903 46.0041C21.1954 45.799 21.3106 45.5208 21.3106 45.2307C21.3106 44.9406 21.1954 44.6624 20.9903 44.4573C20.7852 44.2522 20.507 44.137 20.2169 44.137H17.4263C17.5805 40.9062 18.4314 37.7469 19.9206 34.8757L22.3294 36.2688C22.58 36.4067 22.8746 36.4409 23.1501 36.3641C23.4256 36.2873 23.6601 36.1057 23.8033 35.8581C23.9465 35.6105 23.987 35.3167 23.9162 35.0396C23.8454 34.7625 23.6688 34.5242 23.4244 34.3757L21.0194 32.9838C22.7415 30.3256 24.9992 28.0558 27.6481 26.3194L29.0538 28.7176C29.201 28.9665 29.4409 29.147 29.721 29.2194C30.001 29.2919 30.2983 29.2505 30.5479 29.1044C30.7975 28.9582 30.979 28.7191 31.0527 28.4394C31.1264 28.1597 31.0863 27.8622 30.9412 27.6119L29.5338 25.2107C32.4348 23.6854 35.6349 22.8146 38.9088 22.6594V25.4495C38.9088 25.7395 39.024 26.0177 39.2291 26.2228C39.4342 26.428 39.7124 26.5432 40.0025 26.5432C40.2926 26.5432 40.5708 26.428 40.7759 26.2228C40.981 26.0177 41.0962 25.7395 41.0962 25.4495V22.6594C44.327 22.8135 47.4862 23.6642 50.3575 25.1532L48.9612 27.5626C48.887 27.687 48.8383 27.8249 48.8178 27.9683C48.7973 28.1117 48.8055 28.2577 48.8419 28.3979C48.8784 28.5381 48.9423 28.6697 49.0299 28.785C49.1176 28.9003 49.2273 28.997 49.3527 29.0696C49.4781 29.1421 49.6166 29.1891 49.7603 29.2076C49.9039 29.2262 50.0498 29.2161 50.1895 29.1778C50.3292 29.1395 50.4599 29.0739 50.5741 28.9847C50.6882 28.8955 50.7835 28.7845 50.8544 28.6582L52.2463 26.2501C54.9056 27.9727 57.1763 30.2312 58.9131 32.8813L56.515 34.2863C56.3904 34.3586 56.2813 34.4547 56.1939 34.5693C56.1066 34.6838 56.0427 34.8145 56.006 34.9537C55.9693 35.093 55.9605 35.2382 55.98 35.3809C55.9995 35.5236 56.0471 35.661 56.1199 35.7853C56.1927 35.9096 56.2893 36.0183 56.4042 36.1051C56.5192 36.192 56.6501 36.2553 56.7895 36.2914C56.929 36.3275 57.0742 36.3357 57.2168 36.3155C57.3594 36.2953 57.4967 36.2472 57.6206 36.1738L60.0225 34.7663C61.5471 37.6676 62.4179 40.8675 62.5737 44.1413H59.7831C59.493 44.1413 59.2148 44.2566 59.0097 44.4617C58.8046 44.6668 58.6894 44.945 58.6894 45.2351C58.6894 45.5252 58.8046 45.8034 59.0097 46.0085C59.2148 46.2136 59.493 46.3288 59.7831 46.3288H62.5737C62.4192 49.5588 61.5683 52.7171 60.0794 55.5876L57.6713 54.1938C57.4201 54.0485 57.1216 54.009 56.8413 54.0838C56.561 54.1586 56.3218 54.3418 56.1766 54.5929C56.0313 54.844 55.9917 55.1426 56.0665 55.4229C56.1414 55.7032 56.3245 55.9423 56.5756 56.0876L58.9806 57.4795C57.2587 60.1384 55.0011 62.4088 52.3519 64.1457Z" fill="#F15A24"/>
<path d="M56.4962 45.2331C56.4962 44.943 56.381 44.6648 56.1759 44.4597C55.9708 44.2546 55.6926 44.1393 55.4025 44.1393H44.8712C44.6624 43.2172 44.1969 42.3731 43.5284 41.7045C42.8599 41.0359 42.0158 40.5702 41.0937 40.3612V29.8306C41.0937 29.5405 40.9785 29.2623 40.7734 29.0572C40.5683 28.852 40.2901 28.7368 40 28.7368C39.7099 28.7368 39.4317 28.852 39.2266 29.0572C39.0215 29.2623 38.9062 29.5405 38.9062 29.8306V40.3612C38.0336 40.5566 37.2295 40.9828 36.5778 41.5951C35.9261 42.2074 35.4507 42.9835 35.2014 43.8423C34.9521 44.7011 34.9379 45.6111 35.1603 46.4772C35.3828 47.3433 35.8337 48.1339 36.466 48.7662C37.0983 49.3986 37.8887 49.8496 38.7549 50.0721C39.621 50.2946 40.5309 50.2805 41.3898 50.0313C42.2486 49.7821 43.0247 49.3068 43.6371 48.6552C44.2495 48.0035 44.6757 47.1994 44.8712 46.3268H55.4025C55.6925 46.3267 55.9706 46.2114 56.1757 46.0063C56.3808 45.8012 56.4961 45.5231 56.4962 45.2331ZM40 48.0412C39.4444 48.0413 38.9013 47.8767 38.4393 47.5681C37.9773 47.2595 37.6172 46.8208 37.4045 46.3076C37.1919 45.7943 37.1362 45.2295 37.2446 44.6846C37.3529 44.1397 37.6204 43.6392 38.0133 43.2464C38.4061 42.8535 38.9067 42.586 39.4516 42.4776C39.9965 42.3693 40.5613 42.4249 41.0745 42.6376C41.5878 42.8503 42.0264 43.2104 42.335 43.6724C42.6436 44.1344 42.8082 44.6775 42.8081 45.2331C42.807 45.9775 42.5107 46.6911 41.9844 47.2174C41.458 47.7438 40.7444 48.04 40 48.0412Z" fill="#F15A24"/>
</svg>
