<svg width="74" height="74" viewBox="0 0 74 74" fill="none" xmlns="http://www.w3.org/2000/svg">
<g clip-path="url(#clip0_0_992)">
<path d="M16.9063 13.654C17.5049 13.654 17.9902 13.1687 17.9902 12.5701C17.9902 11.9714 17.5049 11.4861 16.9063 11.4861C16.3076 11.4861 15.8223 11.9714 15.8223 12.5701C15.8223 13.1687 16.3075 13.654 16.9063 13.654ZM8.23438 13.654C8.83303 13.654 9.31836 13.1687 9.31836 12.5701C9.31836 11.9714 8.83303 11.4861 8.23438 11.4861C7.63573 11.4861 7.15039 11.9714 7.15039 12.5701C7.15039 13.1687 7.63559 13.654 8.23438 13.654ZM12.5703 13.654C13.169 13.654 13.6543 13.1687 13.6543 12.5701C13.6543 11.9714 13.169 11.4861 12.5703 11.4861C11.9717 11.4861 11.4863 11.9714 11.4863 12.5701C11.4863 13.1687 11.9715 13.654 12.5703 13.654ZM12.3326 25.1375C12.3392 25.1376 12.3459 25.1376 12.3525 25.1376L22.153 25.1401H22.1536C22.8307 25.1401 23.4055 24.7014 23.5843 24.0484C23.7632 23.3952 23.4917 22.7247 22.9089 22.38L21.4184 21.498C23.8141 19.1235 25.1616 15.8837 25.1402 12.4893C25.0973 5.70092 19.5412 0.0990284 12.7549 0.00132524C5.72271 -0.0997021 0 5.58861 0 12.5703C0 19.2655 5.51647 24.9925 12.3326 25.1375ZM5.26816 5.16167C7.26703 3.19142 9.90906 2.12984 12.7238 2.16901C18.3393 2.2498 22.9367 6.88549 22.9722 12.5028C22.9915 15.5335 21.6918 18.4156 19.4065 20.4099C19.0244 20.7432 18.8242 21.2434 18.8704 21.7479C18.9167 22.2522 19.2047 22.7072 19.6405 22.9649L19.6513 22.9712L12.3632 22.9695C6.72909 22.8614 2.16797 18.2199 2.16797 12.5703C2.16797 9.7634 3.26901 7.13235 5.26816 5.16167ZM72.916 71.8321H71.832V55.6894C71.832 51.4601 69.3329 47.6196 65.4531 45.8998L59.7404 43.4513C61.1305 43.0127 62.3863 42.2305 63.4082 41.1455C64.9499 39.5087 65.834 37.2876 65.834 35.0519C65.834 32.9975 65.1162 31.0585 63.7581 29.4439C62.0593 27.4267 61.1237 24.863 61.1237 22.2247V17.0303C61.1237 12.4807 59.3519 8.20434 56.1349 4.98895C52.9179 1.77169 48.6411 2.44591e-05 44.0921 2.44591e-05C34.7017 2.44591e-05 27.062 7.63966 27.062 17.0301V22.0555C27.0626 24.7854 25.9898 27.3912 24.2464 29.4916C22.0523 32.1351 21.5964 35.7092 23.0569 38.8191C24.1409 41.1276 26.0961 42.7861 28.4368 43.488L22.764 45.9549C18.784 47.6297 16.2122 51.5019 16.2122 55.8196V68.5803C16.2122 69.1789 16.6974 69.6642 17.2962 69.6642C17.895 69.6642 18.3802 69.1789 18.3802 68.5803V55.8196C18.3802 52.3766 20.4309 49.2887 23.6167 47.9481L30.7273 44.856V51.3809H27.4605C26.5398 51.3809 25.6586 51.7734 25.0428 52.4579C24.4271 53.1424 24.1296 54.0601 24.2268 54.9755L26.0136 71.8321H1.08398C0.485191 71.8321 0 72.3174 0 72.916C0 73.5147 0.485191 74 1.08398 74H72.916C73.5148 74 74 73.5147 74 72.916C74 72.3174 73.5148 71.8321 72.916 71.8321ZM62.0994 30.8398C63.1243 32.0582 63.666 33.5147 63.666 35.0517C63.666 36.7409 62.9968 38.4201 61.83 39.659C60.5946 40.9706 58.8974 41.693 57.051 41.693H55.6383L53.7827 40.8976C52.1618 40.2024 51.0529 38.7121 50.8263 36.9967C54.1709 35.1958 56.4497 31.6615 56.4497 27.6041V19.4549C56.767 19.4765 57.0839 19.4882 57.4 19.4882C57.9213 19.4882 58.4406 19.4586 58.9559 19.4002V22.2246C58.9557 25.3731 60.0724 28.4328 62.0994 30.8398ZM44.3556 47.9525C40.4777 48.0211 36.629 47.5297 32.8953 46.4941V43.9132L33.2088 43.777C33.2113 43.7759 33.2137 43.7748 33.2163 43.7738L35.1501 42.9329C37.3028 41.9971 38.824 40.0803 39.2852 37.8403C40.2291 38.1148 41.2254 38.2648 42.2567 38.2648H45.7889C46.8242 38.2648 47.8242 38.1136 48.7713 37.8372C49.2477 40.0668 50.7747 41.9664 52.9284 42.8903L54.9923 43.7748C54.9936 43.7754 54.9949 43.7759 54.9962 43.7764L55.1491 43.8419V46.2811C51.6409 47.3264 48.014 47.8886 44.3556 47.9525ZM55.1488 48.5381V51.381H32.8953V48.739C36.4094 49.6604 40.0175 50.1266 43.65 50.1266C43.8978 50.1266 44.1456 50.1245 44.3935 50.1201C48.0342 50.0566 51.6452 49.5245 55.1488 48.5381ZM58.9557 17.2143C55.9699 17.6177 52.6042 16.8178 50.2853 15.0212C49.8123 14.6546 49.1314 14.7408 48.7646 15.2141C48.3979 15.6873 48.4843 16.3682 48.9575 16.7349C50.4735 17.9093 52.302 18.7366 54.2817 19.1537V25.0551C53.7609 26.2423 53.181 27.2296 51.8737 28.3081C51.3233 28.7622 50.7209 29.1393 50.0757 29.4384C49.5489 28.4104 48.479 27.7048 47.2467 27.7048H44.7064C42.9543 27.7048 41.5289 29.1303 41.5289 30.8823C41.5289 32.6343 42.9543 34.0598 44.7064 34.0598H47.2467C48.7212 34.0598 49.9642 33.0501 50.321 31.686C51.7711 31.1335 54.1355 29.1624 54.1361 29.1617C53.402 33.1026 49.9396 36.0963 45.7891 36.0963H42.2566C37.5738 36.0963 33.7639 32.2866 33.7639 27.6036V19.2246C37.4456 18.6474 40.9237 17.4016 44.1135 15.5149C48.9704 12.642 52.0857 8.88797 53.9658 5.92205C57.1826 8.78709 59.0125 12.8945 58.9557 17.2143ZM48.2559 30.8853C48.2544 31.4408 47.8023 31.8921 47.2465 31.8921H44.7063C44.1495 31.8921 43.6967 31.4392 43.6967 30.8826C43.6967 30.326 44.1497 29.873 44.7063 29.873H47.2465C47.8021 29.873 48.2541 30.3241 48.2559 30.8793V30.8853ZM29.23 17.0301C29.23 8.83508 35.8971 2.16799 44.0921 2.16799C47.0312 2.16799 49.8397 3.01639 52.2397 4.59583C50.5095 7.36924 47.5973 10.9357 43.0098 13.6494C39.8626 15.511 36.4105 16.6995 32.7489 17.1819H32.6813C32.6808 17.1819 32.6804 17.1819 32.6798 17.1819C32.6792 17.1819 32.6789 17.1819 32.6784 17.1819H29.2299V17.0301H29.23ZM25.0191 37.8976C23.9199 35.5564 24.263 32.866 25.9133 30.8778C27.984 28.3831 29.2323 25.3005 29.23 22.0555V19.3499H31.596V27.6041C31.596 31.6638 33.8777 35.1999 37.2253 36.9997C37.0159 38.7282 35.9104 40.2381 34.2856 40.9446L32.5645 41.693H30.9933C28.4076 41.693 26.1185 40.2387 25.0191 37.8976ZM62.7543 54.7472L60.9432 71.8321H28.1937L26.3826 54.7472C26.3498 54.4374 26.4463 54.1394 26.6546 53.908C26.8629 53.6765 27.1492 53.549 27.4605 53.549H61.6764C61.9877 53.549 62.274 53.6765 62.4823 53.908C62.6906 54.1394 62.7871 54.4374 62.7543 54.7472ZM69.6641 71.8321H63.1233L64.9101 54.9758C65.0073 54.0602 64.7097 53.1426 64.0941 52.4581C63.4783 51.7736 62.5972 51.381 61.6764 51.381H57.3168V44.7712L64.5868 47.8871C67.6711 49.2544 69.6641 52.3169 69.6641 55.6894V71.8321ZM44.5684 58.5713C42.2971 58.5713 40.4492 60.4192 40.4492 62.6905C40.4492 64.9618 42.2971 66.8096 44.5684 66.8096C46.8397 66.8096 48.6875 64.9618 48.6875 62.6905C48.6875 60.4192 46.8397 58.5713 44.5684 58.5713ZM44.5684 64.6416C43.4925 64.6416 42.6172 63.7664 42.6172 62.6905C42.6172 61.6146 43.4925 60.7393 44.5684 60.7393C45.6443 60.7393 46.5196 61.6146 46.5196 62.6905C46.5196 63.7664 45.6444 64.6416 44.5684 64.6416Z" fill="#F15A24"/>
</g>
<defs>
<clipPath id="clip0_0_992">
<rect width="74" height="74" fill="white"/>
</clipPath>
</defs>
</svg>
