<svg width="14" height="14" viewBox="0 0 14 14" fill="none" xmlns="http://www.w3.org/2000/svg">
<g opacity="0.4" clip-path="url(#clip0_2_98)">
<path d="M13.8019 8.37617C13.6426 8.27791 13.437 8.29596 13.2991 8.42199C12.2949 9.33288 10.9958 9.83479 9.642 9.83479C6.63706 9.83479 4.19225 7.38998 4.19225 4.38505C4.19225 3.0311 4.69416 1.73217 5.60505 0.727922C5.73066 0.589494 5.74957 0.384416 5.65087 0.22516C5.55218 0.0663308 5.35896 -0.00736922 5.18047 0.0430459C2.13004 0.906832 0 3.72666 0 6.90025C0 10.8301 3.19698 14.0269 7.12669 14.0269C10.3003 14.0269 13.1202 11.8969 13.984 8.84657C14.0352 8.66638 13.9607 8.47476 13.8019 8.37617Z" fill="#38546F"/>
<path d="M6.94211 5.55944L7.93524 6.05558L8.43138 7.04882C8.5022 7.19088 8.64757 7.28049 8.8064 7.28049C8.96534 7.28049 9.11017 7.19088 9.18142 7.04882L9.67809 6.05558L10.6708 5.55944C10.8129 5.48819 10.9025 5.34325 10.9025 5.18442C10.9025 5.02559 10.8129 4.88065 10.6708 4.8094L9.67809 4.31316L9.18142 3.32002C9.03893 3.0359 8.57312 3.0359 8.43138 3.32002L7.93524 4.31316L6.94211 4.8094C6.80005 4.88022 6.71033 5.02559 6.71033 5.18442C6.71033 5.34325 6.80005 5.48862 6.94211 5.55944Z" fill="#38546F"/>
<path d="M11.3188 2.28865H11.7381V2.70789C11.7381 2.93956 11.9256 3.12712 12.1573 3.12712C12.389 3.12712 12.5766 2.93956 12.5766 2.70789V2.28865H12.9958C13.2275 2.28865 13.415 2.1012 13.415 1.86942C13.415 1.63774 13.2275 1.45029 12.9958 1.45029H12.5766V1.03105C12.5766 0.799271 12.389 0.611816 12.1573 0.611816C11.9256 0.611816 11.7381 0.799271 11.7381 1.03105V1.45029H11.3188C11.0872 1.45029 10.8997 1.63774 10.8997 1.86942C10.8997 2.1012 11.0872 2.28865 11.3188 2.28865Z" fill="#38546F"/>
</g>
<defs>
<clipPath id="clip0_2_98">
<rect width="14" height="14" fill="white"/>
</clipPath>
</defs>
</svg>
