<svg width="30" height="30" viewBox="0 0 30 30" fill="none" xmlns="http://www.w3.org/2000/svg">
<g clip-path="url(#clip0_0_79)">
<path d="M15 30C23.2843 30 30 23.2843 30 15C30 6.71573 23.2843 0 15 0C6.71573 0 0 6.71573 0 15C0 23.2843 6.71573 30 15 30Z" fill="#3E91EB"/>
<path d="M6.86374 14.6748L21.3262 9.09852C21.9975 8.85602 22.5837 9.26227 22.3662 10.2773L22.3675 10.276L19.905 21.8773C19.7225 22.6998 19.2337 22.8998 18.55 22.5123L14.8 19.7485L12.9912 21.491C12.7912 21.691 12.6225 21.8598 12.235 21.8598L12.5012 18.0435L19.4512 11.7648C19.7537 11.4985 19.3837 11.3485 18.985 11.6135L10.3962 17.021L6.69374 15.866C5.88999 15.611 5.87249 15.0623 6.86374 14.6748Z" fill="white"/>
</g>
<defs>
<clipPath id="clip0_0_79">
<rect width="30" height="30" fill="white"/>
</clipPath>
</defs>
</svg>
