<svg width="14" height="14" viewBox="0 0 14 14" fill="none" xmlns="http://www.w3.org/2000/svg">
<g clip-path="url(#clip0_2_45)">
<path d="M6.99998 3.49365C5.06645 3.49365 3.49347 5.06695 3.49347 7.00047C3.49347 8.934 5.06645 10.5073 6.99998 10.5073C8.9332 10.5073 10.5065 8.93431 10.5065 7.00047C10.5065 5.06664 8.9332 3.49365 6.99998 3.49365Z" fill="white"/>
<path d="M6.99999 2.46271C6.62208 2.46271 6.3158 2.15642 6.3158 1.77883V0.68419C6.3158 0.306289 6.62208 0 6.99999 0C7.37789 0 7.68418 0.306289 7.68418 0.68419V1.77883C7.68418 2.15642 7.37758 2.46271 6.99999 2.46271Z" fill="white"/>
<path d="M6.99999 11.5371C6.62208 11.5371 6.3158 11.8434 6.3158 12.2213V13.3156C6.3158 13.6938 6.62208 14.0001 6.99999 14.0001C7.37789 14.0001 7.68418 13.6938 7.68418 13.3156V12.2213C7.68418 11.8434 7.37758 11.5371 6.99999 11.5371Z" fill="white"/>
<path d="M10.208 3.79192C9.94108 3.52469 9.94108 3.09161 10.208 2.82438L10.9821 2.05029C11.249 1.78337 11.6824 1.78337 11.9496 2.05029C12.2169 2.31751 12.2169 2.75091 11.9496 3.01782L11.1755 3.79192C10.9086 4.05914 10.4755 4.05914 10.208 3.79192Z" fill="white"/>
<path d="M3.79173 10.2085C3.5245 9.94093 3.09142 9.94093 2.82419 10.2085L2.0501 10.9822C1.78318 11.2492 1.78287 11.6829 2.0501 11.9498C2.31732 12.2167 2.75072 12.2167 3.01763 11.9498L3.79173 11.1754C4.05895 10.9085 4.05895 10.4751 3.79173 10.2085Z" fill="white"/>
<path d="M11.537 7.00011C11.537 6.62221 11.8433 6.31592 12.2212 6.31592H13.3158C13.6937 6.31592 14 6.62221 14 7.00011C14 7.37801 13.6937 7.68399 13.3158 7.68399H12.2212C11.8433 7.68399 11.537 7.37801 11.537 7.00011Z" fill="white"/>
<path d="M2.46271 7.00011C2.46271 6.62221 2.15642 6.31592 1.77852 6.31592H0.68419C0.306289 6.31592 0 6.62221 0 7.00011C0 7.37801 0.306289 7.68399 0.68419 7.68399H1.77883C2.15642 7.68399 2.46271 7.37801 2.46271 7.00011Z" fill="white"/>
<path d="M10.208 10.2085C10.4752 9.94157 10.9086 9.94157 11.1755 10.2085L11.9496 10.9826C12.2168 11.2492 12.2168 11.6829 11.9496 11.9498C11.6824 12.2167 11.2493 12.2167 10.9821 11.9498L10.208 11.1757C9.94076 10.9085 9.94076 10.4754 10.208 10.2085Z" fill="white"/>
<path d="M3.79172 3.79184C4.05895 3.52461 4.05895 3.09153 3.79172 2.8243L3.01763 2.05052C2.7504 1.78329 2.31732 1.78329 2.05009 2.05052C1.78286 2.31744 1.78286 2.75083 2.05009 3.01775L2.82418 3.79184C3.09141 4.05938 3.52449 4.05938 3.79172 3.79184Z" fill="white"/>
</g>
<defs>
<clipPath id="clip0_2_45">
<rect width="14" height="14" fill="white"/>
</clipPath>
</defs>
</svg>
