<svg width="14" height="14" viewBox="0 0 14 14" fill="none" xmlns="http://www.w3.org/2000/svg">
<g opacity="0.4" clip-path="url(#clip0_12_1522)">
<path d="M6.99992 3.49365C5.06639 3.49365 3.49341 5.06695 3.49341 7.00047C3.49341 8.934 5.06639 10.5073 6.99992 10.5073C8.93313 10.5073 10.5064 8.93431 10.5064 7.00047C10.5064 5.06664 8.93313 3.49365 6.99992 3.49365Z" fill="white"/>
<path d="M7.00011 2.46271C6.62221 2.46271 6.31592 2.15642 6.31592 1.77883V0.68419C6.31592 0.306289 6.62221 0 7.00011 0C7.37801 0 7.6843 0.306289 7.6843 0.68419V1.77883C7.6843 2.15642 7.3777 2.46271 7.00011 2.46271Z" fill="white"/>
<path d="M7.00011 11.5371C6.62221 11.5371 6.31592 11.8434 6.31592 12.2213V13.3156C6.31592 13.6938 6.62221 14.0001 7.00011 14.0001C7.37801 14.0001 7.6843 13.6938 7.6843 13.3156V12.2213C7.6843 11.8434 7.3777 11.5371 7.00011 11.5371Z" fill="white"/>
<path d="M10.208 3.79192C9.94108 3.52469 9.94108 3.09161 10.208 2.82438L10.9821 2.05029C11.249 1.78337 11.6824 1.78337 11.9496 2.05029C12.2169 2.31751 12.2169 2.75091 11.9496 3.01782L11.1755 3.79192C10.9086 4.05914 10.4755 4.05914 10.208 3.79192Z" fill="white"/>
<path d="M3.79179 10.2085C3.52456 9.94093 3.09148 9.94093 2.82425 10.2085L2.05016 10.9822C1.78324 11.2492 1.78293 11.6829 2.05016 11.9498C2.31739 12.2167 2.75078 12.2167 3.0177 11.9498L3.79179 11.1754C4.05902 10.9085 4.05902 10.4751 3.79179 10.2085Z" fill="white"/>
<path d="M11.5369 7.00011C11.5369 6.62221 11.8432 6.31592 12.2211 6.31592H13.3157C13.6936 6.31592 13.9999 6.62221 13.9999 7.00011C13.9999 7.37801 13.6936 7.68399 13.3157 7.68399H12.2211C11.8432 7.68399 11.5369 7.37801 11.5369 7.00011Z" fill="white"/>
<path d="M2.46271 7.00011C2.46271 6.62221 2.15642 6.31592 1.77852 6.31592H0.68419C0.306289 6.31592 0 6.62221 0 7.00011C0 7.37801 0.306289 7.68399 0.68419 7.68399H1.77883C2.15642 7.68399 2.46271 7.37801 2.46271 7.00011Z" fill="white"/>
<path d="M10.208 10.2085C10.4752 9.94157 10.9086 9.94157 11.1755 10.2085L11.9496 10.9826C12.2168 11.2492 12.2168 11.6829 11.9496 11.9498C11.6824 12.2167 11.2493 12.2167 10.9821 11.9498L10.208 11.1757C9.94076 10.9085 9.94076 10.4754 10.208 10.2085Z" fill="white"/>
<path d="M3.79166 3.79184C4.05889 3.52461 4.05889 3.09153 3.79166 2.8243L3.01757 2.05052C2.75034 1.78329 2.31726 1.78329 2.05003 2.05052C1.7828 2.31744 1.7828 2.75083 2.05003 3.01775L2.82412 3.79184C3.09135 4.05938 3.52443 4.05938 3.79166 3.79184Z" fill="white"/>
</g>
<defs>
<clipPath id="clip0_12_1522">
<rect width="14" height="14" fill="white"/>
</clipPath>
</defs>
</svg>
